
<svg xmlns="http://www.w3.org/2000/svg" viewBox="0 0 104.05 104.05"><defs><style>.cls-1{fill:#40549f;}.cls-2{fill:#d83832;}.cls-3{fill:#f1e94d;}</style></defs><title>资源 4v发v</title><g id="图层_2" data-name="图层 2"><g id="图层_1-2" data-name="图层 1"><path class="cls-1" d="M70.53,37.55v10h27.2v7H70.53V65.34L98.23,93a28,28,0,0,0,5.82-17.13V28.14a28.07,28.07,0,0,0-6.33-17.78Z"/><polygon class="cls-1" points="70.53 93.98 89.28 93.98 70.53 75.24 70.53 93.98"/><path class="cls-2" d="M2.15,70.29H27.89L5.52,92.65A28,28,0,0,1,0,75.91V28.14a28,28,0,0,1,6-17.4L27.89,32.6H2.15Z"/><path class="cls-3" d="M67,101h-3.5V54.53H36.34v-7H63.53V5.41h7V27.65L92.66,5.53A28,28,0,0,0,75.91,0H28.14A28,28,0,0,0,11,5.82L44.78,39.6H9.15V63.29H44.78L10.36,97.72a28,28,0,0,0,17.78,6.33H75.91A28,28,0,0,0,88.69,101Z"/></g></g></svg>
